<svg id="eFCpUwzh84K1" xmlns="http://www.w3.org/2000/svg" xmlns:xlink="http://www.w3.org/1999/xlink" viewBox="0 0 600 100" shape-rendering="geometricPrecision" text-rendering="geometricPrecision"><defs><linearGradient id="eFCpUwzh84K2-stroke" x1="0" y1="0.5" x2="1" y2="0.5" spreadMethod="pad" gradientUnits="objectBoundingBox" gradientTransform="translate(0 0)"><stop id="eFCpUwzh84K2-stroke-0" offset="100%" stop-color="#3d4849"/><stop id="eFCpUwzh84K2-stroke-1" offset="100%" stop-color="#c0a878"/></linearGradient></defs><path d="M600,0v60.371971L0,69.121343L0,0h600" transform="matrix(1.002563 0 0 1 0 0)" fill="#3d4849" stroke="url(#eFCpUwzh84K2-stroke)" stroke-width="1.2"/><path d="M27.615063,77.48954c11.229606,21.341048,40.017725,18.135479,56.903765,5.02092c21.497901,16.555104,45.778939,9.046921,55.230125-3.34728c9.693851,10.173561,26.978744,22.877067,53.556485,1.67364c13.962571,13.156306,35.74894,11.199809,43.514644-4.1841c9.633707,14.910906,35.821384,22.425575,55.230125,8.368201c20.242271,13.46087,45.708891,6.235111,53.556486-9.205022c6.726716,15.707652,31.604791,19.583496,50.209205,6.69456c14.558287,10.936053,40.267354,5.357827,51.882844-8.368201c12.464442,16.313976,42.397525,20.205045,60.251045,5.85774c19.575022,8.993004,46.115543,1.06542,56.066945-10.878662c82.68771-8.469969-1.357401-19.812413-.836821-19.12134-5.819528-19.376124-32.15971-26.315719-56.903766-5.983265-8.44286-17.086458-34.319233-23.381079-51.046026-15.062761-15.441346-14.804735-48.518454-15.289499-66.108788-1.673641-18.484344-11.679527-50.208363-9.994779-62.761507,9.205021-7.89874-15.096358-24.744768-32.557543-49.372385-11.715482-17.640334-26.695373-33.472626-8.862249-35.983264-7.531381s-36.596662-18.77917-47.698745,5.02092c-37.754298-20.55142-20.073725,28.603017-28.451883,13.389122s-52.835542-11.779734-48.535564,5.02092-12.810625-26.608645-29.288703-3.34728C72.586033,27.841423,55.540618,20.926815,41.004175,49.999993c-.595181,1.190374-83.049581,21.721546-12.552301,27.48954q.834033.068239-.836811.000007Z" transform="translate(.000009 0.000007)" fill="#3d4849" stroke="#fff" stroke-width="1.2"/><path d="" fill="none" stroke="#3f5787" stroke-width="1.2"/></svg>