<svg id="eTr4qgXU5fw1" xmlns="http://www.w3.org/2000/svg" xmlns:xlink="http://www.w3.org/1999/xlink" viewBox="800 200 600 200" shape-rendering="geometricPrecision" text-rendering="geometricPrecision"><path d="M945.143333,400.000121h454.950538" fill="none" stroke="#fff" stroke-width="1.2"/><path d="" fill="none" stroke="#fff" stroke-width="1.2"/><path d="M1346.17682,400c-.724962-6.242441,2.751959-6.583687,4.911124-8.853357" transform="translate(0 0.000001)" fill="none" stroke="#fff" stroke-width="1.2"/><path d="M1346.17682,400c.277163-11.084298-4.066262-13.414062-7.213214-12.238232" fill="none" stroke="#fff" stroke-width="1.2"/><path d="M1346.17682,400.000123c1.242615-46.899567,5.678791-66.615049,14.525276-57.997297" fill="none" stroke="#fff" stroke-width="1.2"/><path d="M1364.280794,351.459842c-9.928782-13.053134.886635-11.778314,7.853436-8.601383-3.933227.514774-9.35512,2.533356-7.853436,8.601383" transform="translate(0 0.000001)" fill="none" stroke="#fff" stroke-width="1.2"/><path d="" fill="none" stroke="#fff" stroke-width="1.2"/><path d="M1400,400.000123c1.337045-2.656558.451941-4.615445,0-6.193757-1.425156-1.299737-4.769438-1.937867-7.375783-.000001-2.011079,2.004829-8.261826,4.156402.101741,6.193634" transform="translate(.000001 0.000001)" fill="none" stroke="#fff" stroke-width="1.2"/><path d="M1066.268276,359.73101c23.046878-35.648355,50.988113-15.58565,55.791259,40.586019-3.319428-14.178318,9.019657-22.972994,17.139895-29.315554" fill="none" stroke="#fff" stroke-width="1.2"/><path d="M1046.693549,371.001475c15.727535-18.057313,27.384364-16.382842,19.574727,10.78007-.291069-10.113688-9.779318-15.969989-19.574727-10.78007Z" fill="none" stroke="#fff" stroke-width="1.2"/><path d="M1139.19943,371.335395c-.749663,3.876359-4.139392,9.712251-12.346428,10.640862" fill="none" stroke="#fff" stroke-width="1.2"/><path d="M1239.540074,400.317029c-4.328656-14.417046,6.488516-27.052603,17.738295-28.981634" transform="translate(.000001 0)" fill="none" stroke="#fff" stroke-width="1.2"/><path d="M1239.540075,400.317029c-1.073083-13.990247,7.867757-15.90022,13.732872-18.340772" fill="none" stroke="#fff" stroke-width="1.2"/><path d="M1238.576173,400.317029c-2.324301-12.762577-5.269111-11.540638-12.19677-14.490817" transform="translate(0 0.000001)" fill="none" stroke="#fff" stroke-width="1.2"/><path d="M1238.576173,400.31703c-1.099691-18.448985-7.609319-29.85548-12.19677-28.981635" transform="translate(0 0.000001)" fill="none" stroke="#fff" stroke-width="1.2"/><path d="M998.824369,400.317031l3.884353-12.555263c.18233,6.204526,2.399268,6.649031-2.952109,8.535703" transform="translate(.000002 0.000002)" fill="none" stroke="#fff" stroke-width="1.2"/><path d="M998.824371,400c.98938-14.406276-4.069477-25.86115-9.943944-23.344174" fill="none" stroke="#fff" stroke-width="1.2"/><path d="" fill="none" stroke="#fff" stroke-width="1.2"/><path d="" fill="none" stroke="#fff" stroke-width="1.2"/><path d="M809.945686,400c.59947-14.594148-1.603559-36.387188,5.404717-35.324375c5.92781-1.514639,3.728615,20.429456,4.573222,35.324375" transform="translate(.000001 0)" fill="none" stroke="#fff" stroke-width="1.2"/><path d="M815.350404,364.675625c4.422938-61.372207-26.074959-147.856691,45.299073-141.091298" fill="none" stroke="#fff" stroke-width="1.2"/><path d="M860.649477,227.727211v-8.781179c9.169018-1.701867,26.374462-1.203955,35.296065,0c1.350806,1.927271,2.494374,5.622002-.198072,8.781179-8.701977-1.648605-26.239318-1.730192-35.097993,0" transform="translate(0 0.000001)" fill="none" stroke="#fff" stroke-width="1.2"/><path d="" fill="none" stroke="#fff" stroke-width="1.2"/><path d="M812.738953,385.826212l4.232192.000002.151201,9.031984h-4.383393v-9.031986Z" fill="none" stroke="#fff" stroke-width="1.2"/><path d="" fill="none" stroke="#fff" stroke-width="1.2"/><path d="" fill="none" stroke="#fff" stroke-width="1.2"/><path d="M825.892641,400c.647126-6.781178,1.250518-16.889863,10.801574-18.218455" transform="translate(0 0.000001)" fill="none" stroke="#fff" stroke-width="1.2"/><path d="M825.892641,400c1.122194-3.938512,2.906362-9.775842,5.400787-9.109226" fill="none" stroke="#fff" stroke-width="1.2"/><path d="" fill="none" stroke="#fff" stroke-width="1.2"/><path d="M998.935242,398.980372c1.127904-13.652169-.769144-33.592955,9.115969-34.312525" transform="translate(.000001 0)" fill="none" stroke="#fff" stroke-width="1.2"/><path d="M825.892641,398.980372c-1.059125-6.938429-4.445806-17.462996,0-16.646449" transform="translate(0 0.000001)" fill="none" stroke="#fff" stroke-width="1.2"/><path d="" fill="none" stroke="#fff" stroke-width="1.2"/><path d="M945.143333,400L800,400" transform="translate(.000001 0)" fill="none" stroke="#fff" stroke-width="1.2"/><path d="" fill="none" stroke="#fff" stroke-width="1.2"/><path d="" fill="none" stroke="#fff" stroke-width="1.2"/><path d="" fill="none" stroke="#fff" stroke-width="1.2"/></svg>